<?xml version="1.0" encoding="UTF-8"?>
<svg width="135" height="135" version="1.1" viewBox="0 0 35.719 35.719" xmlns="http://www.w3.org/2000/svg">
	<g fill-rule="evenodd">
		<rect transform="rotate(-45)" x="-20.429" y="18.447" width="40.864" height="13.621" rx="6.8107" fill="#069"/>
		<path d="m3.4117 3.4157c-2.668 2.668-2.668 6.9638-1e-6 9.6318l3.2026 3.2026 9.6318-9.6318-3.2026-3.2026c-2.668-2.668-6.9638-2.668-9.6318 0zm16.061 25.693 3.2027 3.2027c2.668 2.668 6.9638 2.668 9.6318 0s2.668-6.9638 0-9.6318l-3.2027-3.2027z" fill="#396"/>
	</g>
	<path d="m19.557 18.036-2.7141 1.567v-3.134z" color="#000000" fill="#900" stroke="#fff" stroke-linejoin="round" stroke-width=".4961"/>
	<g fill="#fff">
		<path d="m12.178 16.221v3.5781h1.1017v-0.51987h-0.53899v-2.5368h0.53899v-0.52142z"/>
		<path d="m13.859 16.221v3.5781h1.1017v-0.51987h-0.53899v-2.5368h0.53899v-0.52142z"/>
	</g>
	<g transform="matrix(-1 0 0 1 35.725 0)" fill="#fff">
		<path d="m12.178 16.221v3.5781h1.1017v-0.51987h-0.53899v-2.5368h0.53899v-0.52142z"/>
		<path d="m13.859 16.221v3.5781h1.1017v-0.51987h-0.53899v-2.5368h0.53899v-0.52142z"/>
	</g>
</svg>
