<?xml version="1.0" encoding="UTF-8"?>
<svg width="135" height="150" version="1.1" viewBox="0 0 35.7 39.7" xmlns="http://www.w3.org/2000/svg"><g transform="matrix(.825 0 0 .825 3.12 3.12)" fill-rule="evenodd"><rect transform="rotate(-45)" x="-20.4" y="18.4" width="40.9" height="13.6" rx="6.81" fill="#069"/><path d="m3.41 3.42c-2.67 2.67-2.67 6.96-1e-6 9.63l3.2 3.2 9.63-9.63-3.2-3.2c-2.67-2.67-6.96-2.67-9.63 0zm16.1 25.7 3.2 3.2c2.67 2.67 6.96 2.67 9.63 0s2.67-6.96 0-9.63l-3.2-3.2z" fill="#396"/></g><path d="m19.3 18-2.24 1.29v-2.59z" color="#000000" fill="#900" stroke="#fff" stroke-linejoin="round" stroke-width=".409"/><g transform="matrix(.825 0 0 .825 3.12 3.12)" fill="#fff"><path d="m12.2 16.2v3.58h1.1v-0.52h-0.539v-2.54h0.539v-0.521z"/><path d="m13.9 16.2v3.58h1.1v-0.52h-0.539v-2.54h0.539v-0.521z"/></g><g transform="matrix(-.825 0 0 .825 32.6 3.12)" fill="#fff"><path d="m12.2 16.2v3.58h1.1v-0.52h-0.539v-2.54h0.539v-0.521z"/><path d="m13.9 16.2v3.58h1.1v-0.52h-0.539v-2.54h0.539v-0.521z"/></g><g transform="matrix(1.42 0 0 1.42 -14.4 29.7)" fill="#333" aria-label="Patch demo"><path d="m11.7 2.6q0.374 0 0.649 0.123 0.279 0.123 0.427 0.353t0.148 0.546q0 0.312-0.148 0.546-0.148 0.23-0.427 0.353-0.275 0.123-0.649 0.123h-0.649v0.829h-0.534v-2.87zm-0.0246 1.59q0.349 0 0.53-0.148t0.181-0.423-0.181-0.423-0.53-0.148h-0.624v1.14z"/><path d="m14.1 3.26q0.485 0 0.739 0.234 0.259 0.23 0.259 0.698v1.29h-0.485v-0.267q-0.0944 0.144-0.271 0.222-0.172 0.0739-0.419 0.0739-0.246 0-0.431-0.0821-0.185-0.0862-0.287-0.234-0.0985-0.152-0.0985-0.341 0-0.296 0.218-0.472 0.222-0.181 0.694-0.181h0.567v-0.0328q0-0.23-0.14-0.353-0.135-0.123-0.406-0.123-0.185 0-0.365 0.0575-0.177 0.0575-0.3 0.16l-0.201-0.374q0.172-0.131 0.415-0.201 0.242-0.0698 0.513-0.0698zm-0.0698 1.87q0.193 0 0.341-0.0862 0.152-0.0903 0.214-0.255v-0.255h-0.53q-0.443 0-0.443 0.292 0 0.14 0.111 0.222 0.111 0.0821 0.308 0.0821z"/><path d="m17 5.36q-0.0903 0.0739-0.222 0.111-0.127 0.037-0.271 0.037-0.361 0-0.558-0.189t-0.197-0.55v-1.06h-0.361v-0.411h0.361v-0.501h0.513v0.501h0.587v0.411h-0.587v1.04q0 0.16 0.078 0.246 0.078 0.0821 0.226 0.0821 0.172 0 0.287-0.0903z"/><path d="m18.3 5.51q-0.341 0-0.612-0.144t-0.423-0.398q-0.152-0.259-0.152-0.583t0.152-0.579 0.419-0.398q0.271-0.144 0.616-0.144 0.324 0 0.567 0.131 0.246 0.131 0.37 0.378l-0.394 0.23q-0.0944-0.152-0.238-0.226-0.14-0.078-0.308-0.078-0.287 0-0.476 0.189-0.189 0.185-0.189 0.497t0.185 0.501q0.189 0.185 0.48 0.185 0.168 0 0.308-0.0739 0.144-0.078 0.238-0.23l0.394 0.23q-0.127 0.246-0.374 0.382-0.242 0.131-0.563 0.131z"/><path d="m20.8 3.26q0.415 0 0.665 0.242t0.25 0.719v1.26h-0.513v-1.19q0-0.287-0.135-0.431-0.135-0.148-0.386-0.148-0.283 0-0.448 0.172-0.164 0.168-0.164 0.489v1.11h-0.513v-3.05h0.513v1.11q0.127-0.135 0.312-0.205 0.189-0.0739 0.419-0.0739z"/><path d="m25.4 2.43v3.05h-0.493v-0.283q-0.127 0.156-0.316 0.234-0.185 0.078-0.411 0.078-0.316 0-0.571-0.14-0.25-0.14-0.394-0.394-0.144-0.259-0.144-0.591 0-0.333 0.144-0.587 0.144-0.255 0.394-0.394 0.255-0.14 0.571-0.14 0.218 0 0.398 0.0739t0.308 0.222v-1.13zm-1.16 2.64q0.185 0 0.333-0.0821 0.148-0.0862 0.234-0.242 0.0862-0.156 0.0862-0.361t-0.0862-0.361-0.234-0.238q-0.148-0.0862-0.333-0.0862t-0.333 0.0862q-0.148 0.0821-0.234 0.238-0.0862 0.156-0.0862 0.361t0.0862 0.361 0.234 0.242q0.148 0.0821 0.333 0.0821z"/><path d="m28 4.39q0 0.0534-0.0082 0.152h-1.72q0.0452 0.242 0.234 0.386 0.193 0.14 0.476 0.14 0.361 0 0.595-0.238l0.275 0.316q-0.148 0.177-0.374 0.267-0.226 0.0903-0.509 0.0903-0.361 0-0.636-0.144t-0.427-0.398q-0.148-0.259-0.148-0.583 0-0.32 0.144-0.575 0.148-0.259 0.406-0.402 0.259-0.144 0.583-0.144 0.32 0 0.571 0.144 0.255 0.14 0.394 0.398 0.144 0.255 0.144 0.591zm-1.11-0.723q-0.246 0-0.419 0.148-0.168 0.144-0.205 0.386h1.24q-0.0328-0.238-0.201-0.386-0.168-0.148-0.419-0.148z"/><path d="m31.2 3.26q0.415 0 0.657 0.242 0.242 0.238 0.242 0.719v1.26h-0.513v-1.19q0-0.287-0.127-0.431-0.127-0.148-0.365-0.148-0.259 0-0.415 0.172-0.156 0.168-0.156 0.485v1.11h-0.513v-1.19q0-0.287-0.127-0.431-0.127-0.148-0.365-0.148-0.263 0-0.419 0.168-0.152 0.168-0.152 0.489v1.11h-0.513v-2.19h0.489v0.279q0.123-0.148 0.308-0.226t0.411-0.078q0.246 0 0.435 0.0944 0.193 0.0903 0.304 0.271 0.135-0.172 0.349-0.267 0.214-0.0985 0.472-0.0985z"/><path d="m33.6 5.51q-0.333 0-0.599-0.144-0.267-0.144-0.419-0.398-0.148-0.259-0.148-0.583t0.148-0.579q0.152-0.255 0.419-0.398 0.267-0.144 0.599-0.144 0.337 0 0.604 0.144t0.415 0.398q0.152 0.255 0.152 0.579t-0.152 0.583q-0.148 0.255-0.415 0.398-0.267 0.144-0.604 0.144zm0-0.439q0.283 0 0.468-0.189t0.185-0.497-0.185-0.497-0.468-0.189-0.468 0.189q-0.181 0.189-0.181 0.497t0.181 0.497q0.185 0.189 0.468 0.189z"/></g></svg>
