<?xml version="1.0" encoding="UTF-8"?>
<svg width="700pt" height="700pt" version="1.0" viewBox="0 0 700 700" xmlns="http://www.w3.org/2000/svg">
	<g transform="translate(0 700) scale(.1 -.1)">
		<path d="m1485 6715c-116-13-169-24-275-56-300-90-587-320-753-603-193-331-233-740-107-1103 40-116 119-264 194-363 68-90 739-767 756-762 6 1 431 423 946 938l936 936-48 51c-27 28-52 54-57 57-4 4-148 146-320 316-262 261-328 320-412 375-198 129-397 198-620 214-49 4-99 8-110 9s-69-3-130-9z"/>
		<path d="m5337 6724c-1-1-40-5-87-8-157-12-332-67-502-157-157-82-169-94-2168-2092-1068-1068-1965-1968-1991-2e3 -154-183-267-430-294-642-4-27-9-61-11-75-13-77 3-380 21-411 2-3 7-21 10-40 18-101 100-291 176-409 299-461 861-698 1389-585 14 3 34 7 45 9 127 25 357 133 485 230 57 43 725 705 2032 2013 1071 1071 1957 1959 1969 1973 49 58 130 181 167 255 261 522 163 1134-248 1544-221 222-513 362-805 387-69 6-185 11-188 8z"/>
		<path d="m4757 2238-939-940 29-30c49-51 558-560 630-629 240-231 579-364 923-362 73 0 180 9 210 18 8 2 26 6 40 9 388 68 773 368 944 738 38 82 88 218 80 218-2 0-1 8 5 17 5 10 16 62 26 117 64 381-47 781-300 1081-48 56-691 699-703 702-4 0-429-422-945-939z"/>
	</g>
</svg>
